<svg width="500" height="500" viewBox="0 0 500 500" fill="none" xmlns="http://www.w3.org/2000/svg">
  <rect width="500" height="500" rx="75" fill="black"/>
  <path d="M315.859 357.631C315.174 355.597 313.267 354.227 311.12 354.227H189.899C187.747 354.227 185.836 355.604 185.155 357.645L163.02 424.05C162.34 426.092 160.429 427.469 158.277 427.469H91.1965C87.7105 427.469 85.2945 423.991 86.5106 420.724L215.112 75.2557C215.841 73.2983 217.71 72 219.798 72H280.728C282.813 72 284.68 73.2942 285.411 75.2472L414.724 420.716C415.948 423.984 413.531 427.469 410.042 427.469H342.964C340.817 427.469 338.91 426.099 338.225 424.064L315.859 357.631ZM208.254 288.324C207.179 291.561 209.589 294.9 212.999 294.9H287.984C291.402 294.9 293.812 291.548 292.724 288.309L255.026 176.038C253.497 171.485 247.054 171.496 245.541 176.053L208.254 288.324Z" fill="white"/>
</svg>
